<svg xmlns="http://www.w3.org/2000/svg" version="1.1" xmlns:xlink="http://www.w3.org/1999/xlink" xmlns:svgjs="http://svgjs.dev/svgjs" width="1500" height="1500" viewBox="0 0 1500 1500"><rect width="1500" height="1500" fill="#ffffff"></rect><g transform="matrix(0.6666666666666666,0,0,0.6666666666666666,249.39393939393938,570.2414297947398)"><svg viewBox="0 0 396 143" data-background-color="#ffffff" preserveAspectRatio="xMidYMid meet" height="541" width="1500" xmlns="http://www.w3.org/2000/svg" xmlns:xlink="http://www.w3.org/1999/xlink"><g id="tight-bounds" transform="matrix(1,0,0,1,0.2400000000000091,-0.22788667462418744)"><svg viewBox="0 0 395.52 143.45577334924837" height="143.45577334924837" width="395.52"><g><svg viewBox="0 0 568.8468130031047 206.32170175115203" height="143.45577334924837" width="395.52"><g transform="matrix(1,0,0,1,173.32681300310472,63.75640057932849)"><svg viewBox="0 0 395.52 78.80890059249505" height="78.80890059249505" width="395.52"><g id="textblocktransform"><svg viewBox="0 0 395.52 78.80890059249505" height="78.80890059249505" width="395.52" id="textblock"><g><svg viewBox="0 0 395.52 78.80890059249505" height="78.80890059249505" width="395.52"><g transform="matrix(1,0,0,1,0,0)"><svg width="395.52" viewBox="3.1 -36 227.83 45.4" height="78.80890059249505" data-palette-color="#61777f"><path d="M17.2-34.8Q21.2-34.8 24.2-33.15 27.2-31.5 28.83-28.43 30.45-25.35 30.45-21.15L30.45-21.15 25.55-21.15Q25.55-25.5 23.4-27.93 21.25-30.35 17.2-30.35L17.2-30.35Q12.7-30.35 10.35-27.58 8-24.8 8-19.4L8-19.4 8-14.9Q8-9.55 10.3-6.75 12.6-3.95 17.1-3.95L17.1-3.95Q21.3-3.95 23.53-6.35 25.75-8.75 25.75-13.05L25.75-13.05 30.45-13.05Q30.45-8.9 28.83-5.85 27.2-2.8 24.2-1.15 21.2 0.5 17.2 0.5L17.2 0.5Q10.55 0.5 6.83-3.58 3.1-7.65 3.1-14.9L3.1-14.9 3.1-19.4Q3.1-26.6 6.83-30.7 10.55-34.8 17.2-34.8L17.2-34.8ZM42-36L42-22.35Q45.15-26.05 49.9-26.05L49.9-26.05Q54.1-26.05 56.5-23.8 58.9-21.55 58.9-17.2L58.9-17.2 58.9 0 54.2 0 54.2-16.35Q54.2-22.3 48.8-22.3L48.8-22.3Q47-22.3 45.45-21.35 43.9-20.4 42.95-18.78 42-17.15 42-15.2L42-15.2 42 0 37.3 0 37.3-36 42-36ZM77-26.05Q82.05-26.05 84.52-24.05 87-22.05 87-18.25L87-18.25 87-5Q87-4.1 87.4-3.68 87.8-3.25 88.4-3.25L88.4-3.25Q89.55-3.25 90.7-3.95L90.7-3.95 90.7-0.5Q89 0.5 86.84 0.5L86.84 0.5Q84.7 0.5 83.65-0.73 82.59-1.95 82.5-4.1L82.5-4.1Q79.4 0.5 73.55 0.5L73.55 0.5Q69.34 0.5 67.27-1.33 65.2-3.15 65.2-7.1L65.2-7.1Q65.2-10.2 66.8-11.98 68.39-13.75 72.09-14.55 75.8-15.35 82.3-15.35L82.3-15.35 82.3-17.7Q82.3-20.25 80.8-21.28 79.3-22.3 76.45-22.3L76.45-22.3Q73.75-22.3 72.25-21.25 70.75-20.2 70.75-18.3L70.75-18.3 70.75-17.7 66.14-17.7Q66.05-18.4 66.05-19.35L66.05-19.35Q66.05-21.1 67.45-22.65 68.84-24.2 71.25-25.13 73.65-26.05 76.55-26.05L76.55-26.05 77-26.05ZM82.3-11.7Q77.05-11.7 74.37-11.18 71.7-10.65 70.8-9.6 69.89-8.55 69.89-6.7L69.89-6.7Q69.89-3.25 75.15-3.25L75.15-3.25Q77-3.25 78.65-4.17 80.3-5.1 81.3-6.8 82.3-8.5 82.3-10.7L82.3-10.7 82.3-11.7ZM101.69-33.7L101.69-25.55 107.64-25.55 107.64-21.8 101.69-21.8 101.69-6.55Q101.69-4.75 102.39-3.95 103.09-3.15 104.54-3.15L104.54-3.15Q105.84-3.15 107.64-3.9L107.64-3.9 107.64-0.4Q105.84 0.5 102.99 0.5L102.99 0.5Q100.04 0.5 98.52-1.25 96.99-3 96.99-6.8L96.99-6.8 96.99-21.8 94.19-21.8 94.19-25.55 97.14-25.55 98.74-33.7 101.69-33.7ZM136.89-30.15Q136.89-27.6 135.54-25.88 134.19-24.15 131.79-23.65L131.79-23.65 131.69-23.5Q134.19-21.3 134.19-18L134.19-18Q134.19-14.4 131.49-12.2 128.79-10 124.14-10L124.14-10 120.74-10Q119.24-10 118.24-9.22 117.24-8.45 117.24-7.25L117.24-7.25Q117.24-6.05 118.19-5.35 119.14-4.65 120.74-4.65L120.74-4.65 130.39-4.65Q133.34-4.65 135.12-2.8 136.89-0.95 136.89 1.9L136.89 1.9Q136.89 5.3 134.31 7.35 131.74 9.4 127.39 9.4L127.39 9.4 117.34 9.4Q115.64 9.4 114.22 8.5 112.79 7.6 111.97 6.23 111.14 4.85 111.14 3.4L111.14 3.4Q111.14 1.3 112.17-0.25 113.19-1.8 114.89-2.55L114.89-2.55Q112.59-3.95 112.59-6.7L112.59-6.7Q112.59-8.5 113.64-9.8 114.69-11.1 116.59-11.75L116.59-11.75Q113.24-13.6 113.24-18L113.24-18Q113.24-21.7 115.97-23.88 118.69-26.05 123.54-26.05L123.54-26.05 123.74-26.05Q126.54-26.05 128.84-25.2L128.84-25.2Q132.39-26.95 132.89-30.15L132.89-30.15 136.89-30.15ZM123.69-22.3Q121.04-22.3 119.47-21.28 117.89-20.25 117.89-18L117.89-18Q117.89-15.75 119.47-14.75 121.04-13.75 123.69-13.75L123.69-13.75Q126.34-13.75 127.94-14.75 129.54-15.75 129.54-18L129.54-18Q129.54-20.25 127.94-21.28 126.34-22.3 123.69-22.3L123.69-22.3ZM128.99-0.15L118.69-0.15Q117.49-0.15 116.64 0.7 115.79 1.55 115.79 2.75L115.79 2.75Q115.79 3.95 116.64 4.8 117.49 5.65 118.69 5.65L118.69 5.65 128.34 5.65Q129.94 5.65 131.09 4.73 132.24 3.8 132.24 2.6L132.24 2.6Q132.24 1.35 131.39 0.6 130.54-0.15 128.99-0.15L128.99-0.15ZM153.39-26.05Q156.94-26.05 158.94-23.78 160.94-21.5 160.94-18.05L160.94-18.05 160.79-16.15 156.64-16.15 156.64-17.25Q156.64-18.75 155.89-19.9 155.14-21.05 153.99-21.68 152.84-22.3 151.69-22.3L151.69-22.3Q149.29-22.3 147.94-20.4 146.59-18.5 146.59-15.25L146.59-15.25 146.59 0 141.89 0 141.89-25.55 145.24-25.55 145.94-21.75Q146.24-22.75 147.29-23.75 148.34-24.75 149.91-25.4 151.49-26.05 153.39-26.05L153.39-26.05ZM176.44-26.05Q181.49-26.05 183.96-24.05 186.44-22.05 186.44-18.25L186.44-18.25 186.44-5Q186.44-4.1 186.84-3.68 187.24-3.25 187.84-3.25L187.84-3.25Q188.99-3.25 190.14-3.95L190.14-3.95 190.14-0.5Q188.44 0.5 186.29 0.5L186.29 0.5Q184.14 0.5 183.09-0.73 182.04-1.95 181.94-4.1L181.94-4.1Q178.84 0.5 172.99 0.5L172.99 0.5Q168.79 0.5 166.71-1.33 164.64-3.15 164.64-7.1L164.64-7.1Q164.64-10.2 166.24-11.98 167.84-13.75 171.54-14.55 175.24-15.35 181.74-15.35L181.74-15.35 181.74-17.7Q181.74-20.25 180.24-21.28 178.74-22.3 175.89-22.3L175.89-22.3Q173.19-22.3 171.69-21.25 170.19-20.2 170.19-18.3L170.19-18.3 170.19-17.7 165.59-17.7Q165.49-18.4 165.49-19.35L165.49-19.35Q165.49-21.1 166.89-22.65 168.29-24.2 170.69-25.13 173.09-26.05 175.99-26.05L175.99-26.05 176.44-26.05ZM181.74-11.7Q176.49-11.7 173.81-11.18 171.14-10.65 170.24-9.6 169.34-8.55 169.34-6.7L169.34-6.7Q169.34-3.25 174.59-3.25L174.59-3.25Q176.44-3.25 178.09-4.17 179.74-5.1 180.74-6.8 181.74-8.5 181.74-10.7L181.74-10.7 181.74-11.7ZM222.58-26.05Q226.53-26.05 228.73-23.75 230.93-21.45 230.93-17.2L230.93-17.2 230.93 0 226.23 0 226.23-16.35Q226.23-22.3 221.63-22.3L221.63-22.3Q220.03-22.3 218.66-21.35 217.28-20.4 216.46-18.78 215.63-17.15 215.63-15.2L215.63-15.2 215.63 0 210.93 0 210.93-16.35Q210.93-22.3 206.33-22.3L206.33-22.3Q204.73-22.3 203.36-21.35 201.98-20.4 201.16-18.78 200.33-17.15 200.33-15.2L200.33-15.2 200.33 0 195.63 0 195.63-25.55 199.03-25.55 199.68-21.8Q202.58-26.05 207.73-26.05L207.73-26.05Q212.78-26.05 214.73-21.8L214.73-21.8Q216.43-24.2 218.38-25.13 220.33-26.05 222.58-26.05L222.58-26.05Z" opacity="1" transform="matrix(1,0,0,1,0,0)" fill="#000000" class="wordmark-text-0" data-fill-palette-color="primary" id="text-0"></path></svg></g></svg></g></svg></g></svg></g><g><svg viewBox="0 0 154.72192298683086 206.32170175115203" height="206.32170175115203" width="154.72192298683086"><g><svg xmlns="http://www.w3.org/2000/svg" xmlns:xlink="http://www.w3.org/1999/xlink" version="1.1" x="0" y="0" viewBox="9.21145618000168 0.875000000000012 49.56871041998838 66.09988093498905" enable-background="new 0 0 68 68" xml:space="preserve" height="206.32170175115203" width="154.72192298683086" class="icon-icon-0" data-fill-palette-color="accent" id="icon-0"><g fill="#61777f" data-fill-palette-color="accent"><path d="M25.4 17.6l-1.7 2.2c-0.3 0.4-0.3 1.1 0.2 1.4 0.4 0.3 1.1 0.2 1.4-0.2l1.7-2.2c0.3-0.4 0.3-1.1-0.2-1.4C26.3 17.1 25.7 17.2 25.4 17.6z" fill="#000000" data-fill-palette-color="accent"></path><path d="M30.7 10.7l-2.1 2.8c-0.3 0.4-0.3 1.1 0.2 1.4 0.4 0.3 1.1 0.2 1.4-0.2l2.1-2.8c0.3-0.4 0.3-1.1-0.2-1.4C31.6 10.2 31 10.3 30.7 10.7z" fill="#000000" data-fill-palette-color="accent"></path><path d="M48.1 57.3c0.3-0.4 0.2-1.1-0.2-1.4-0.4-0.3-1.1-0.2-1.4 0.2-0.5 0.7-1.1 1.2-1.8 1.7-0.5 0.3-0.6 0.9-0.3 1.4C45.2 60.5 47.3 58.4 48.1 57.3z" fill="#000000" data-fill-palette-color="accent"></path><path d="M49.5 54c0.5 0.2 1.1 0 1.3-0.5 0.7-1.5 0.9-2.7 0.9-2.7 0.1-0.5-0.3-1-0.8-1.1-0.6-0.1-1.1 0.3-1.1 0.8 0 0-0.1 1-0.7 2.1C48.7 53.1 49 53.7 49.5 54z" fill="#000000" data-fill-palette-color="accent"></path><path d="M24.2 65.2c15.7 4.9 18.6-1.9 29.6-1.9 0.9 0 1.8 0 2.7 0.1 0 0 0.1 0 0.1 0 1.7 0 2.7-2.1 1.9-3.8-3.9-7.6 0.2-13.8-1.4-32.4 0-0.5-0.4-0.8-0.8-0.9l-16-21.7c-3.1-5-9.5-4.9-12.5-0.1L11.7 26.4c-0.4 0.1-0.8 0.4-0.8 0.9-1.5 20.1 2.3 25-1.4 32.3-0.4 0.8-0.4 1.9 0.1 2.7C11.1 64.8 12.5 61.5 24.2 65.2zM29.5 5.8c2.2-3.6 6.7-3.8 9.1 0.1l15.2 20.5H14.2L29.5 5.8zM11.2 60.6c4-8 0.2-13.4 1.6-32.2h42.4c1.4 17.8-2.6 24 1.6 32.2 0.2 0.4 0 0.8-0.1 0.9-1-0.1-1.9-0.1-2.9-0.1-11.6 0-13.8 6.8-29 2-4.5-1.4-8.1-2.3-13.5-1.9C11.2 61.4 11.1 60.9 11.2 60.6z" fill="#000000" data-fill-palette-color="accent"></path></g></svg></g></svg></g></svg></g><defs></defs></svg><rect width="395.52" height="143.45577334924837" fill="none" stroke="none" visibility="hidden"></rect></g></svg></g></svg>